#!OML:ASF X:\für Bonn\!DataBase\2005_08_10_Bjorn_Final\c3d\bjorn.ASF
:FULLY-SPECIFIED
:DEGREES
109
root -20.9884 19.4397 -0.458263 -253.651 -88.9605 -101.859
lowerback -11.9796 5.30635 -5.81811
upperback 5.09171 8.67943 -6.818
thorax 12.6197 3.87352 -2.32666
lowerneck -3.12428 -6.11424 5.87211
upperneck 25.5697 -10.82 3.19059
head 8.38537 -4.60132 -0.812533
rclavicle 1.98785e-014 2.22639e-014
rhumerus 26.4678 -6.81752 -59.3798
rradius 88.4557
rwrist -18.0933
rhand -10.6714 6.31837
rfingers 7.12502
rthumb 15.337 -23.0929
lclavicle 1.98785e-014 2.22639e-014
lhumerus -21.6333 20.4375 73.9244
lradius 11.6445
lwrist -55.6352
lhand -15.1239 -3.61684
lfingers 7.12502
lthumb 11.0453 26.0725
rfemur -11.9548 -11.9317 17.5748
rtibia 25.1343
rfoot -8.76366 20.9411
rtoes 4.91616
lfemur -12.298 17.1391 -15.7739
ltibia 24.9108
lfoot -8.39315 -15.4677
ltoes 1.26616
110
root -20.9882 19.4397 -0.460159 -255.312 -88.9385 -100.2
lowerback -11.9475 5.24736 -5.75283
upperback 5.14533 8.58528 -6.72786
thorax 12.6533 3.83031 -2.28526
lowerneck -2.97203 -6.05118 5.915
upperneck 25.7494 -10.7734 3.24283
head 8.42328 -4.5721 -0.797556
rclavicle 1.11319e-014 -5.08889e-014
rhumerus 25.1688 -7.13831 -59.9198
rradius 90.8586
rwrist -17.4435
rhand -11.1333 6.1838
rfingers 7.12502
rthumb 14.8921 -23.2609
lclavicle 1.11319e-014 -5.08889e-014
lhumerus -21.5741 20.7409 73.9524
lradius 11.5725
lwrist -55.6651
lhand -15.3157 -3.75207
lfingers 7.12502
lthumb 10.8602 25.9471
rfemur -11.9418 -11.8564 17.6152
rtibia 25.127
rfoot -8.80875 20.8446
rtoes 4.96564
lfemur -12.2989 17.1412 -15.736
ltibia 24.9157
lfoot -8.39597 -15.4916
ltoes 1.23177
111
root -20.9878 19.4397 -0.461063 -256.308 -88.9274 -99.2142
lowerback -11.9005 5.1797 -5.70159
upperback 5.19626 8.47858 -6.62604
thorax 12.6704 3.78004 -2.22739
lowerneck -2.7837 -5.98699 5.91255
upperneck 25.9034 -10.7205 3.31877
head 8.44947 -4.54389 -0.764895
rclavicle 1.09729e-013 -8.90555e-014
rhumerus 23.8324 -7.40231 -60.3916
rradius 93.2294
rwrist -16.8794
rhand -11.516 6.08042
rfingers 7.12502
rthumb 14.5234 -23.3912
lclavicle 1.09729e-013 -8.90555e-014
lhumerus -21.5482 21.0327 74.0008
lradius 11.5189
lwrist -55.6605
lhand -15.54 -3.87951
lfingers 7.12502
lthumb 10.6439 25.8309
rfemur -11.9239 -11.8362 17.6371
rtibia 25.1207
rfoot -8.861 20.8034
rtoes 4.84597
lfemur -12.2928 17.0637 -15.7162
ltibia 24.918
lfoot -8.40501 -15.4254
ltoes 1.16519
112
root -20.9872 19.4394 -0.462257 -257.396 -88.9458 -98.1554
lowerback -11.8393 5.11656 -5.66991
upperback 5.26837 8.38212 -6.53817
thorax 12.7037 3.73266 -2.17308
lowerneck -2.6333 -5.93442 5.97688
upperneck 26.0652 -10.6819 3.34384
head 8.47879 -4.51949 -0.762309
rclavicle 7.31528e-014 -2.22639e-014
rhumerus 22.4747 -7.66719 -60.8454
rradius 95.5565
rwrist -16.2923
rhand -11.858 5.89242
rfingers 7.12502
rthumb 14.1938 -23.6026
lclavicle 7.31528e-014 -2.22639e-014
lhumerus -21.4872 21.2827 74.0646
lradius 11.4859
lwrist -55.6967
lhand -15.7652 -3.99504
lfingers 7.12502
lthumb 10.4266 25.7264
rfemur -11.8868 -11.7808 17.6213
rtibia 25.1161
rfoot -8.88334 20.7243
rtoes 4.89093
lfemur -12.2635 17.0926 -15.724
ltibia 24.9182
lfoot -8.42414 -15.4616
ltoes 0.999512
113
root -20.9861 19.4388 -0.463055 -258.723 -88.9778 -96.8717
lowerback -11.7772 5.04902 -5.6515
upperback 5.36595 8.28374 -6.44971
thorax 12.7645 3.68199 -2.1112
lowerneck -2.51096 -5.87982 6.07647
upperneck 26.1997 -10.6386 3.35563
head 8.50138 -4.49068 -0.769843
rclavicle 5.00937e-014 -4.77083e-014
rhumerus 21.106 -7.91001 -61.2621
rradius 97.8029
rwrist -15.7901
rhand -12.1933 5.6417
rfingers 7.12502
rthumb 13.8708 -23.8758
lclavicle 5.00937e-014 -4.77083e-014
lhumerus -21.3924 21.4392 74.1785
lradius 11.4844
lwrist -55.6342
lhand -15.9472 -4.06387
lfingers 7.12502
lthumb 10.2511 25.6663
rfemur -11.8358 -11.7696 17.588
rtibia 25.1192
rfoot -8.93686 20.6758
rtoes 4.79707
lfemur -12.2117 16.9904 -15.7403
ltibia 24.9104
lfoot -8.43945 -15.4066
ltoes 1.00229
